<?xml version="1.0" encoding="UTF-8"?>
<svg width="640" height="480" xmlns="http://www.w3.org/2000/svg" xmlns:xlink="http://www.w3.org/1999/xlink">
 <!-- Created with SVG-edit - http://svg-edit.googlecode.com/ -->
 <defs>
  <svg id="svg_5" viewBox="0 0 100 100" height="100px" width="100px" y="0px" x="0px" xmlns:xlink="http://www.w3.org/1999/xlink">
   <g id="Layer_2">
    <g id="svg_7">
     <ellipse ry="1.086" rx="1.057" cy="27.152" cx="38.334" class="eye test-grc" id="svg_8"/>
     <ellipse ry="1.086" rx="1.059" cy="27.152" cx="60.881" class="eye" id="svg_9"/>
     <path d="m81.154999,51.308998c-1.003998,-3.178997 -9.462997,-18.237999 -11.136002,-22.253998c-1.672997,-4.014999 -6.022999,-10.375 -6.022999,-10.375s0,-8.030001 0,-10.039001c0,-2.008 -1.003998,-11.043 -5.355,-8.032c-4.349998,3.013 -1.671997,16.064 -1.671997,16.064s-2.360001,-0.855 -6.694,-0.855c-0.094002,0 -0.183002,0.003 -0.275002,0.005c-0.091999,-0.001 -0.18,-0.005 -0.275002,-0.005c-4.331997,0 -6.691998,0.855 -6.691998,0.855s2.676998,-13.051 -1.673,-16.064c-4.350002,-3.011 -5.354,6.024 -5.354,8.032c0,2.008 0,10.039001 0,10.039001s-4.351,6.360001 -6.024,10.375c-1.672001,4.016998 -10.131001,19.076 -11.135,22.253998c-1.004,3.179001 -5.689,13.889 -2.677999,21.584999c1.441,3.681 3.208,4.164001 3.892,3.486c1.018999,-1.012001 1.761999,-23.379997 4.479,-27.917995c-0.215,3.793999 -3.740002,19.721996 -3.189001,33.395c0.25,6.214996 3.256001,11.097 4.615999,12.454994c4.35,4.350006 6.697002,5.688004 6.697002,5.688004s15.147999,0 15.941998,0c0.795002,0 1.375,-1.5 1.375,-1.5l0.019001,0.002998l0.021,-0.002998c0,0 0.581001,1.5 1.375,1.5s15.942997,0 15.942997,0s2.346001,-1.338997 6.696007,-5.688004c1.359993,-1.357994 4.365997,-6.239998 4.615997,-12.454994c0.551003,-13.673004 -2.973999,-29.601002 -3.188004,-33.395c2.715004,4.537998 3.458,26.905994 4.478004,27.917995c0.683998,0.678001 2.450996,0.194 3.891998,-3.486c3.012001,-7.696999 -1.674004,-18.406998 -2.678001,-21.584999l0,0l0,0zm-20.629997,-27.208998c1.802998,0 3.262997,1.202999 3.262997,3.212999s-1.032997,3.212 -2.835999,3.212c-1.801998,0 -3.263,-1.202 -3.263,-3.212s1.035,-3.212999 2.836002,-3.212999zm-10.589001,1.51c1.836998,0 4.372997,0.727999 4.372997,1.629c0,0.899 -1.085999,1.628 -4.372997,1.628c-3.285,0 -4.372002,-0.729 -4.372002,-1.628c0,-0.902 2.343002,-1.629 4.372002,-1.629zm-11.247002,-1.51c1.803001,0 2.836002,1.202999 2.836002,3.212999s-1.460003,3.212 -3.263,3.212c-1.802002,0 -2.836002,-1.202 -2.836002,-3.212s1.462002,-3.212999 3.263,-3.212999zm37.729,44.658003c0,9.057999 -6.935997,27.823997 -26.127998,28.913994c-20.52,-2.183998 -26.555,-18.111 -26.555,-28.913994c0,-15.966003 9.524998,-28.910004 26.555,-28.910004c16.356003,0 26.127998,12.944 26.127998,28.910004z" class="body" id="svg_10"/>
     <path d="m55.630001,43.740002c-1.945,-0.126003 -3.671001,2.088997 -3.721001,2.871998c-0.050999,0.782001 1.635998,-0.824001 3.581001,-0.697998c1.943996,0.123997 3.411999,1.931 3.461998,1.148998c0.050999,-0.783001 -1.377998,-3.199001 -3.321999,-3.322998z" class="fur" id="svg_11"/>
     <path d="m51.650002,52.936001c-2.122002,-0.025002 -3.868,2.247997 -3.877003,3.023998c-0.009998,0.776001 1.73,-0.893997 3.852001,-0.868999c2.119999,0.025002 3.818001,1.737 3.827,0.959999c0.011002,-0.774998 -1.681,-3.09 -3.801998,-3.114998z" class="fur" id="svg_12"/>
     <path d="m68.311996,51.202999c0.196007,-0.759998 -0.751999,-3.402 -2.637993,-3.889999c-1.888004,-0.487999 -3.999004,1.362 -4.195004,2.120998c-0.195999,0.760002 1.762001,-0.5 3.648998,-0.011997c1.886002,0.489998 2.987,2.538998 3.183998,1.780998l0,0l0,0z" class="fur" id="svg_13"/>
     <path d="m62.925999,54.250999c-1.938,-0.209999 -3.758999,1.925999 -3.843998,2.706001c-0.084,0.779999 1.670998,-0.75 3.607998,-0.540001c1.938,0.209 3.325001,2.078999 3.409,1.299999c0.085999,-0.779999 -1.236,-3.257 -3.173,-3.466z" class="fur" id="svg_14"/>
     <path d="m71.334999,59.505001c1.629997,0.423 2.522003,2.418999 2.720001,1.660999c0.195999,-0.760002 -0.543999,-3.347 -2.172997,-3.77c-1.630005,-0.421001 -3.532013,1.481998 -3.729004,2.241001c-0.197998,0.759998 1.552002,-0.553001 3.181999,-0.132z" class="fur" id="svg_15"/>
     <path d="m48.537998,46.612c-0.049999,-0.783001 -1.774998,-2.998001 -3.719997,-2.871998c-1.945,0.123997 -3.374001,2.539997 -3.323002,3.322998c0.049999,0.782001 1.517002,-1.025002 3.462002,-1.148998c1.945,-0.126003 3.630001,1.48 3.580997,0.697998z" class="fur" id="svg_16"/>
     <path d="m37.967999,49.450001c-0.195999,-0.760002 -2.306999,-2.610001 -4.194,-2.119999c-1.886999,0.487999 -2.834999,3.127998 -2.638998,3.887997c0.195999,0.760002 1.296999,-1.291 3.184999,-1.778999c1.887001,-0.488998 3.846001,0.769001 3.647999,0.011002z" class="fur" id="svg_17"/>
     <path d="m38.324001,54.742001c-1.838001,0.646 -2.560001,3.357998 -2.299,4.099998c0.258999,0.738003 1.182999,-1.396 3.021999,-2.043999c1.837997,-0.646 3.896,0.442001 3.636997,-0.297001c-0.260998,-0.739998 -2.521,-2.403999 -4.359997,-1.758999z" class="fur" id="svg_18"/>
     <path d="m28.139,57.396c-1.629999,0.423 -2.370001,3.009998 -2.173,3.77c0.196001,0.757999 1.089001,-1.237999 2.719,-1.660999c1.629,-0.421001 3.378,0.892998 3.182001,0.132999c-0.196001,-0.758999 -2.099001,-2.661999 -3.728001,-2.242001z" class="fur" id="svg_19"/>
    </g>
   </g>
  </svg>
 </defs>
 <g>
  <title>Layer 1</title>
  <use x="6.618804" y="11.392765" transform="matrix(1.89721, 0, 0, 1.5604, -5.47512, 4.42572)" id="svg_6" xlink:href="#svg_5"/>
  <rect id="svg_20" height="1" width="62" y="1131" x="1692" stroke-linecap="null" stroke-linejoin="null" stroke-width="5" stroke="null" fill="null"/>
  <rect id="svg_21" height="66" width="125" y="1145" x="1599" stroke-linecap="null" stroke-linejoin="null" stroke-width="5" stroke="null" fill="null"/>
  <path id="svg_22" d="m1553,1289l117,0l0,99l-117,0l0,-99z" stroke-linecap="null" stroke-linejoin="null" stroke-width="5" stroke="null" fill="null"/>
  <rect id="svg_23" height="47" width="176" y="1162" x="1456" stroke-linecap="null" stroke-linejoin="null" stroke-width="5" stroke="null" fill="null"/>
  <rect id="svg_24" height="238" width="83" y="1141" x="1363" stroke-linecap="null" stroke-linejoin="null" stroke-width="5" stroke="null" fill="null"/>
  <rect id="svg_25" height="98" width="242" y="1244" x="1646" stroke-linecap="null" stroke-linejoin="null" stroke-width="5" stroke="null" fill="#ff0000"/>
 </g>
</svg>